<?xml version="1.0" standalone="no"?>
<!DOCTYPE svg PUBLIC "-//W3C//DTD SVG 20010904//EN"
 "http://www.w3.org/TR/2001/REC-SVG-20010904/DTD/svg10.dtd">
<svg version="1.0" xmlns="http://www.w3.org/2000/svg"
 width="260.000000pt" height="260.000000pt" viewBox="0 0 260.000000 260.000000"
 preserveAspectRatio="xMidYMid meet">
<metadata>
Created by potrace 1.14, written by Peter Selinger 2001-2017
</metadata>
<g transform="translate(0.000000,260.000000) scale(0.100000,-0.100000)"
fill="#000000" stroke="none">
<path d="M0 2206 l0 -395 48 -3 c47 -3 47 -3 47 -38 -1 -19 -4 -65 -9 -102 -6
-53 -11 -68 -24 -69 -11 0 -12 -2 -4 -6 6 -2 12 -14 12 -24 0 -19 -3 -18 -35
7 l-35 26 0 -65 c0 -36 5 -69 10 -72 6 -3 10 3 10 14 0 12 4 21 9 21 10 0 36
-29 30 -33 -2 -1 -16 -8 -30 -16 -26 -13 -35 -38 -13 -38 7 0 10 7 6 15 -3 10
0 13 9 10 8 -3 15 -12 17 -21 3 -13 -4 -17 -23 -17 -25 0 -27 -3 -21 -27 4
-16 6 -41 6 -58 -1 -16 -3 -232 -6 -479 l-5 -449 63 7 c35 4 90 9 123 13 l59
6 -31 -39 c-34 -43 -74 -120 -92 -174 -10 -33 -14 -36 -50 -35 -21 0 -45 6
-54 14 -16 12 -17 6 -17 -83 l0 -96 1300 0 1300 0 0 80 0 79 -52 38 c-29 21
-72 51 -95 65 -23 15 -56 46 -74 68 -45 56 -127 116 -171 124 -22 4 -56 23
-85 49 -94 84 -175 147 -186 147 -7 0 -32 16 -56 35 -42 33 -80 50 -53 23 27
-27 11 -66 -91 -213 -38 -55 -87 -109 -127 -142 -64 -53 -195 -123 -228 -123
-32 0 -169 165 -213 258 -12 26 -35 66 -51 89 -33 49 -34 59 -8 73 16 8 18 8
14 -4 -3 -8 -1 -16 4 -19 4 -3 8 22 8 56 0 76 6 106 23 117 11 6 11 9 0 12 -8
3 -11 8 -8 12 10 10 69 -43 69 -62 0 -15 2 -15 10 -2 8 12 13 11 39 -8 17 -12
31 -18 31 -13 0 12 68 -15 92 -36 15 -13 22 -12 65 7 42 19 45 23 28 30 -18 8
-18 9 -2 9 10 1 17 4 15 9 -5 9 49 61 56 54 4 -3 6 5 6 17 0 14 7 25 20 28 11
3 20 10 20 15 0 6 11 24 25 40 17 19 24 38 21 54 -3 17 0 24 10 24 8 0 12 4 9
10 -3 5 1 23 10 39 8 17 14 34 13 38 -3 11 34 126 44 138 5 5 8 2 8 -8 0 -20
11 -22 29 -4 11 10 12 8 7 -8 -8 -29 -26 -155 -26 -191 l0 -31 88 -13 c48 -7
98 -14 112 -15 30 -3 91 -19 180 -47 83 -26 311 -138 305 -149 -3 -4 14 -13
37 -19 24 -7 62 -20 86 -31 l42 -19 0 635 c0 593 -1 635 -17 645 -17 11 -17
11 0 6 16 -5 17 12 17 264 0 252 -1 269 -17 263 -17 -6 -17 -5 -2 13 9 10 15
35 15 54 -1 32 -4 35 -34 38 -18 2 -40 -2 -48 -9 -11 -9 -17 -10 -22 -2 -8 13
-121 16 -137 4 -15 -11 -55 -11 -55 0 0 7 -44 10 -120 8 -66 -2 -120 -7 -120
-11 0 -4 9 -8 20 -8 13 0 18 -5 14 -15 -4 -8 -1 -15 6 -15 9 0 11 -18 8 -62
-4 -49 -1 -66 11 -75 14 -12 14 -14 -3 -28 -10 -8 -24 -12 -30 -8 -6 3 -5 0 2
-8 6 -7 12 -24 12 -37 0 -22 -2 -23 -17 -11 -17 13 -17 13 -3 -5 8 -11 16 -33
17 -50 0 -17 4 -41 8 -53 5 -15 3 -23 -4 -23 -6 0 -11 5 -11 11 0 6 -9 8 -20
4 -17 -5 -20 -2 -20 24 0 20 5 31 14 31 11 0 26 20 26 35 0 9 -45 -6 -48 -15
-2 -6 -8 -7 -14 -4 -5 4 -4 -4 2 -17 9 -16 10 -24 2 -27 -6 -2 -8 -10 -5 -18
3 -8 -1 -14 -8 -14 -9 0 -6 -7 8 -18 15 -12 21 -28 21 -54 0 -20 3 -41 6 -47
4 -5 2 -12 -3 -16 -15 -9 -47 72 -53 133 -1 6 -5 12 -10 12 -5 0 -6 5 -3 10 4
6 11 8 16 5 5 -4 9 -2 9 4 0 5 -20 13 -45 17 -25 3 -48 10 -51 15 -3 5 -10 7
-15 3 -19 -11 -88 8 -141 39 -29 18 -73 39 -98 46 -25 8 -50 18 -56 23 -6 4
-14 5 -17 1 -4 -3 -7 1 -7 10 0 10 6 17 14 17 8 0 16 7 20 15 3 8 11 15 18 15
7 0 26 18 42 40 16 21 32 38 35 37 4 -1 31 20 61 46 l55 48 -177 -2 c-150 -2
-178 -4 -178 -17 0 -11 3 -12 14 -3 11 9 15 8 20 -4 3 -9 2 -13 -4 -10 -6 3
-10 1 -10 -4 0 -6 9 -11 19 -11 14 0 18 -5 14 -19 -7 -26 -29 -33 -47 -16 -21
21 -29 18 -16 -5 6 -11 9 -20 8 -21 -29 -7 -97 -7 -108 0 -23 16 -3 25 26 13
14 -7 23 -8 19 -2 -3 5 0 10 9 10 8 0 16 -6 19 -12 2 -7 8 -9 13 -5 13 12 -18
28 -44 22 -17 -4 -22 -2 -16 6 5 8 3 9 -6 4 -8 -5 -1 8 14 28 16 20 29 37 30
37 2 0 1 -15 0 -32 -2 -18 -1 -24 2 -13 3 11 10 24 15 29 5 6 9 13 9 18 0 4
-326 8 -725 8 l-725 0 0 -394z m1723 342 c-23 -23 -45 -39 -49 -36 -3 4 2 13
13 22 84 69 96 74 36 14z m637 11 c0 -6 -7 -17 -15 -25 -13 -14 -15 -13 -15 4
0 10 3 22 7 25 10 11 23 8 23 -4z m-600 -2 c0 -2 -12 -14 -27 -28 l-28 -24 24
28 c23 25 31 32 31 24z m810 -1 c0 -3 -4 -8 -10 -11 -5 -3 -10 -1 -10 4 0 6 5
11 10 11 6 0 10 -2 10 -4z m-226 -86 c8 -16 10 -30 5 -30 -5 0 -9 4 -9 10 0 5
-10 9 -21 7 -12 -1 -24 4 -27 12 -3 8 0 11 7 7 6 -4 14 0 17 8 8 22 10 21 28
-14z m-817 -4 c-3 -8 -1 -17 6 -19 9 -3 9 -7 0 -17 -10 -11 -14 -10 -19 3 -6
18 1 47 12 47 3 0 4 -6 1 -14z m623 10 c0 -3 -4 -8 -10 -11 -5 -3 -10 -1 -10
4 0 6 5 11 10 11 6 0 10 -2 10 -4z m42 -10 c7 4 8 2 4 -4 -4 -7 -2 -12 4 -12
7 0 5 -6 -4 -15 -19 -19 -32 -20 -17 -1 8 10 9 16 1 21 -5 3 -10 12 -9 18 0 9
2 8 6 -1 2 -6 10 -9 15 -6z m-692 -39 c0 -5 -4 -5 -10 -2 -5 3 -10 14 -10 23
0 15 2 15 10 2 5 -8 10 -19 10 -23z m890 -7 c0 -5 -4 -10 -10 -10 -5 0 -10 5
-10 10 0 6 5 10 10 10 6 0 10 -4 10 -10z m-120 -35 c0 -8 -4 -15 -10 -15 -5 0
-7 7 -4 15 4 8 8 15 10 15 2 0 4 -7 4 -15z m24 1 c-3 -8 2 -16 13 -20 15 -4
15 -5 -2 -3 -20 2 -35 37 -16 37 6 0 8 -6 5 -14z m-147 -18 c-3 -8 -6 -5 -6 6
-1 11 2 17 5 13 3 -3 4 -12 1 -19z m65 -23 c3 -14 2 -25 -3 -25 -12 0 -31 39
-24 50 9 15 22 4 27 -25z m-71 -15 c18 10 18 10 1 -24 -23 -47 -31 -45 -30 7
1 23 3 34 6 25 3 -14 7 -16 23 -8z m53 -112 c5 -4 11 -29 12 -55 2 -39 1 -45
-9 -32 -17 22 -48 32 -40 13 6 -15 -5 -18 -24 -6 -12 7 -11 60 1 80 4 7 4 17
1 22 -7 11 43 -7 59 -22z m116 -6 c0 -4 -9 -8 -19 -8 -15 0 -17 3 -9 13 10 12
28 9 28 -5z m-207 -73 c-7 -26 -36 -20 -38 7 -1 16 3 20 21 16 16 -3 20 -9 17
-23z m144 9 c-3 -8 -6 -5 -6 6 -1 11 2 17 5 13 3 -3 4 -12 1 -19z m-142 -110
c0 -46 -4 -73 -12 -75 -12 -4 -19 21 -28 108 -4 44 -3 46 18 42 21 -4 22 -10
22 -75z m99 58 c28 -25 38 -92 14 -83 -7 2 -12 10 -10 16 1 6 -5 11 -13 11
-18 0 -64 49 -65 68 0 21 47 13 74 -12z m96 15 c0 -6 -4 -13 -10 -16 -5 -3
-10 1 -10 9 0 9 5 16 10 16 6 0 10 -4 10 -9z m114 -18 c5 -11 0 -23 -11 -31
-16 -13 -16 -13 7 -7 24 7 24 7 5 -8 -25 -19 -36 -5 -28 36 6 31 18 35 27 10z
m-154 -13 c0 -11 -2 -20 -4 -20 -2 0 -6 9 -9 20 -3 11 -1 20 4 20 5 0 9 -9 9
-20z m190 16 c0 -3 -4 -8 -10 -11 -5 -3 -10 -1 -10 4 0 6 5 11 10 11 6 0 10
-2 10 -4z m-96 -12 c9 -3 16 -10 16 -15 0 -4 -6 -6 -14 -3 -9 3 -17 -3 -21
-15 -8 -27 -25 -27 -18 0 4 12 0 25 -8 30 -11 7 -9 9 8 9 12 0 28 -3 37 -6z
m131 -14 c19 -9 19 -9 -3 -16 -14 -4 -21 -12 -18 -20 3 -8 1 -14 -3 -14 -5 0
-18 -3 -28 -6 -13 -4 -14 -3 -5 4 12 8 18 25 21 55 1 9 10 8 36 -3z m-296 -57
c23 -27 41 -52 41 -58 0 -5 -4 -5 -8 2 -6 9 -11 6 -21 -8 -8 -13 -8 -18 -1
-14 12 8 50 -31 50 -51 0 -7 -6 -11 -14 -8 -9 4 -13 -3 -12 -23 1 -15 5 -33 9
-40 15 -24 -34 0 -58 28 -13 16 -27 25 -30 19 -3 -5 -2 -10 3 -10 16 0 24 -33
10 -41 -23 -14 -30 3 -27 70 4 84 6 90 32 83 19 -5 19 -4 6 10 -7 9 -18 15
-23 15 -11 -2 -24 43 -18 61 7 21 19 14 61 -35z m-834 -42 c33 -29 125 -69
174 -75 38 -5 54 -14 74 -42 28 -38 14 -40 -49 -8 -52 26 -65 29 -148 26 -70
-2 -97 -7 -116 -21 -29 -21 -42 -13 -54 32 -8 35 11 110 27 104 7 -2 21 -1 32
4 11 4 22 8 24 8 2 1 18 -12 36 -28z m984 -32 c-13 -10 -18 -19 -11 -19 8 0
10 -5 6 -12 -6 -9 -9 -9 -12 1 -4 11 -6 11 -13 0 -7 -11 -9 -10 -9 4 0 9 4 17
9 17 5 0 12 9 16 19 4 13 12 18 22 14 13 -5 11 -9 -8 -24z m166 10 c-10 -15
-25 -10 -19 6 4 8 10 12 15 9 5 -3 7 -10 4 -15z m32 -1 c-3 -8 -6 -5 -6 6 -1
11 2 17 5 13 3 -3 4 -12 1 -19z m-1407 -30 c0 -4 7 -8 15 -8 9 0 12 -6 8 -17
-4 -11 -3 -14 5 -9 7 4 15 0 19 -11 3 -10 14 -26 25 -36 11 -11 18 -32 18 -55
1 -97 5 -127 18 -127 7 0 16 -6 21 -13 6 -9 12 -8 26 8 22 25 35 17 35 -21 0
-24 7 -32 35 -46 35 -17 36 -16 93 14 52 28 63 31 124 26 60 -5 67 -4 77 16
15 28 -4 70 -39 88 l-24 12 28 10 c15 6 32 11 37 11 6 0 7 5 4 10 -3 6 1 10 9
10 9 0 16 -5 16 -10 0 -10 8 -21 37 -54 7 -8 11 -15 10 -17 -1 -3 3 2 10 9 17
20 24 1 30 -74 3 -45 1 -64 -7 -64 -9 0 -10 -11 -6 -35 6 -28 4 -35 -9 -35 -8
0 -15 -6 -16 -12 0 -10 -2 -10 -6 0 -2 6 -9 12 -14 12 -12 0 -12 -27 0 -32 5
-2 5 -14 -1 -28 -7 -20 -11 -22 -18 -10 -5 8 -10 10 -10 5 0 -6 6 -17 13 -24
10 -11 10 -13 0 -7 -9 5 -13 -1 -13 -18 0 -35 -34 -35 -66 -1 -25 27 -56 37
-34 10 6 -8 9 -19 5 -25 -4 -6 -1 -17 5 -25 17 -21 -4 -45 -32 -37 -14 3 -19
1 -14 -6 4 -7 3 -12 -2 -12 -16 0 -23 -32 -10 -47 9 -11 9 -16 -1 -23 -9 -5
-10 -10 -2 -14 16 -10 13 -29 -3 -23 -11 4 -16 -3 -18 -26 -2 -26 -8 -33 -29
-35 -20 -2 -38 8 -74 42 -40 39 -54 46 -87 46 -21 0 -56 9 -76 19 -49 25 -161
24 -188 -1 -11 -9 -23 -16 -29 -16 -9 1 -24 -34 -42 -91 -5 -20 -43 42 -43 72
0 16 3 18 9 8 18 -27 10 83 -10 142 -11 33 -18 65 -15 73 3 7 -1 18 -9 24 -11
9 -13 7 -10 -12 16 -85 32 -214 28 -220 -6 -11 -33 -10 -33 2 0 5 -7 7 -15 4
-12 -5 -14 -38 -14 -195 0 -119 4 -189 10 -189 6 0 7 -4 4 -10 -8 -14 7 -12
26 3 9 7 14 18 12 25 -3 6 -1 13 4 13 37 6 53 5 53 -3 0 -6 -7 -8 -15 -5 -18
7 -30 -9 -14 -19 8 -4 7 -9 -2 -15 -10 -6 -7 -9 11 -9 36 0 70 11 70 22 0 6
-6 8 -14 5 -8 -3 -18 5 -25 19 -15 33 -14 37 5 30 8 -3 12 -2 9 4 -3 6 -23 10
-43 11 -20 0 -46 4 -57 9 -12 5 15 8 72 6 51 -1 87 1 80 6 -8 5 -7 8 6 8 16 0
15 4 -8 34 l-26 34 33 33 c32 32 35 33 123 33 81 0 94 -3 133 -27 36 -23 42
-32 36 -50 -7 -22 -22 -37 -37 -37 -5 0 -5 4 -2 10 4 6 -3 6 -21 0 -19 -8 -30
-7 -40 1 -13 11 -37 12 -129 10 -33 -1 -42 -26 -19 -52 14 -15 15 -20 4 -17
-10 2 -16 -9 -20 -37 -4 -33 -10 -41 -30 -45 -35 -7 -101 -44 -124 -69 -11
-12 -25 -21 -32 -21 -8 0 -36 -14 -64 -31 -73 -45 -161 -76 -235 -82 -11 -1
-25 -9 -31 -17 -8 -10 -16 -11 -25 -4 -15 10 -44 10 -93 1 -44 -9 -43 -16 2
-14 27 2 38 -1 35 -10 -7 -18 -62 -34 -83 -23 -9 5 -19 7 -22 5 -3 -3 -5 3 -5
13 0 9 5 20 11 25 6 4 -6 6 -27 5 -20 -2 -37 -8 -36 -13 1 -6 9 -9 19 -7 11 2
16 -5 16 -22 0 -20 -3 -23 -18 -15 -9 5 -23 8 -30 7 -7 -2 -12 2 -11 8 2 12
-13 12 -101 -5 -33 -6 -66 -11 -73 -11 -20 0 -16 19 4 19 47 2 61 6 56 15 -3
5 2 15 13 23 18 13 18 14 -1 12 -11 -1 -31 -1 -45 0 -19 1 -22 3 -10 10 8 6
18 7 22 5 4 -3 8 0 8 6 0 8 -9 10 -25 6 -14 -4 -25 -2 -25 4 0 9 32 14 45 8 2
-2 11 6 20 17 9 11 14 15 11 9 -3 -7 1 -15 9 -18 12 -4 14 0 11 20 -4 20 -2
24 10 20 9 -3 25 -6 37 -6 17 0 19 -2 7 -9 -8 -6 -18 -7 -24 -4 -5 3 -6 1 -2
-6 4 -6 11 -9 16 -6 5 3 11 1 15 -5 3 -6 -3 -10 -15 -10 -12 0 -28 -7 -36 -15
-14 -13 -14 -15 0 -15 8 0 18 -9 21 -20 3 -11 11 -20 16 -20 6 0 8 4 5 9 -3 5
9 12 27 15 19 3 42 12 52 20 15 11 16 14 2 19 -8 3 -24 -3 -35 -14 -12 -10
-30 -19 -41 -19 -21 0 -37 17 -26 28 3 3 10 1 14 -7 6 -10 10 -8 16 6 5 10 7
22 6 26 -1 5 16 7 37 6 20 -2 43 0 49 4 6 4 19 4 29 0 11 -4 15 -3 11 4 -4 6
-1 14 5 17 7 3 -6 4 -30 2 -23 -2 -42 0 -42 5 0 11 49 24 57 15 3 -3 13 0 21
6 12 10 19 7 38 -17 13 -17 24 -25 24 -19 0 6 -7 17 -15 24 -11 9 -13 16 -5
24 7 7 14 6 22 -2 15 -15 48 -16 48 -2 0 6 7 10 15 10 8 0 15 5 15 11 0 6 -7
8 -16 5 -8 -3 -13 -2 -9 3 3 5 -1 11 -7 14 -7 2 -9 8 -5 13 4 5 12 2 16 -5 5
-8 14 -10 21 -6 9 5 11 4 6 -3 -5 -8 1 -12 16 -12 18 0 20 2 8 10 -13 8 -13
12 3 27 26 27 41 -1 21 -40 -15 -28 -15 -28 8 -25 24 4 25 6 14 51 -5 22 -3
27 12 27 15 0 19 6 16 26 -2 20 1 24 14 19 9 -4 22 -8 28 -8 6 0 11 -13 11
-30 0 -25 -3 -28 -26 -24 -24 5 -24 4 -7 -8 10 -8 16 -20 13 -28 -4 -11 0 -13
13 -10 17 5 19 18 21 162 1 86 4 292 6 459 3 211 1 302 -6 302 -7 0 -11 -23
-11 -57 0 -32 -1 -139 -3 -238 l-2 -180 -32 -3 c-25 -2 -33 1 -33 12 0 9 7 16
15 16 8 0 15 6 15 14 0 10 -7 12 -22 8 -13 -3 -19 -1 -15 5 4 6 0 17 -9 24
-13 11 -17 10 -26 -4 -5 -10 -14 -14 -21 -10 -7 4 -15 8 -19 9 -5 1 -11 2 -15
3 -16 3 23 21 44 21 12 0 27 8 32 18 6 9 11 13 11 7 0 -5 4 -4 9 4 5 8 7 21 4
28 -4 10 -8 11 -13 3 -8 -13 -60 -3 -60 11 0 5 -6 9 -14 9 -20 0 -36 24 -27
39 6 10 10 9 15 -4 3 -9 11 -13 17 -10 6 4 13 -2 16 -14 3 -11 9 -18 15 -15 5
3 4 11 -2 19 -13 16 -22 85 -11 85 4 0 13 -6 20 -12 11 -11 12 -10 7 0 -6 10
-1 11 17 7 14 -4 28 -2 31 4 5 7 -5 10 -26 10 -49 -2 -60 0 -53 10 3 6 14 8
26 6 19 -4 19 -4 -1 26 -22 30 -43 40 -34 14 7 -17 -11 -21 -21 -5 -11 18 5
49 22 43 10 -4 14 -2 12 6 -3 7 -9 13 -14 14 -21 2 -33 25 -29 55 3 30 2 32
-16 22 -15 -8 -20 -8 -20 2 0 9 -3 9 -10 -2 -8 -13 -10 -12 -10 3 0 9 4 17 8
17 5 0 17 7 28 16 18 14 17 15 -13 11 -31 -3 -32 -3 -18 24 12 22 23 28 70 34
64 8 158 -2 149 -16 -3 -5 5 -9 17 -9 18 0 21 -5 17 -35 -2 -19 0 -35 4 -35 4
0 9 -12 9 -27 1 -16 3 -21 6 -12 4 18 32 29 71 29 12 0 22 5 22 10 0 5 -3 9
-7 9 -5 -1 -19 -1 -33 0 -24 1 -23 2 12 27 20 14 39 37 42 50 4 13 10 24 15
24 5 0 7 -8 4 -19 -3 -10 2 -47 11 -81 9 -34 16 -81 16 -105 0 -42 1 -44 33
-47 17 -2 53 5 80 14 50 19 53 18 36 -14 -6 -11 -8 -22 -5 -25 6 -7 51 82 66
133 11 35 10 49 -5 93 -11 34 -22 51 -31 49 -8 -2 -24 13 -36 33 l-21 37 27
34 c24 32 56 47 56 26z m1320 -3 c0 -9 -6 -12 -15 -9 -8 4 -15 2 -15 -4 0 -5
-9 -12 -19 -15 -13 -3 -18 0 -16 12 1 9 9 16 18 16 8 0 19 4 23 8 12 12 24 8
24 -8z m-1236 -19 c-7 -17 -28 -18 -22 -1 2 6 6 9 11 8 4 -2 7 2 7 9 0 6 2 9
5 6 3 -3 3 -13 -1 -22z m883 -100 c-11 -16 -12 -27 -5 -40 7 -12 6 -22 -4 -33
-8 -11 -9 -14 -1 -10 8 5 14 -4 18 -26 9 -44 0 -143 -11 -140 -5 1 -21 -8 -34
-19 -14 -11 -18 -16 -10 -12 10 5 9 0 -4 -14 -11 -12 -26 -21 -35 -21 -11 1
-10 3 4 7 19 4 19 5 2 11 -17 6 -16 9 7 34 14 16 26 33 26 40 0 7 -7 4 -14 -6
-19 -24 -31 -5 -28 43 2 24 11 42 30 58 17 15 20 20 8 16 -16 -6 -17 -5 -6 15
6 12 13 50 14 84 2 34 4 80 6 102 l2 40 25 -53 c22 -48 23 -55 10 -76z m261
69 c-1 -25 -8 -47 -15 -49 -7 -3 -13 -10 -13 -16 0 -6 5 -8 10 -5 6 3 10 3 10
0 0 -9 -27 -35 -36 -35 -5 0 -3 5 4 12 6 6 8 16 3 22 -5 6 -11 28 -15 48 -6
31 -4 37 9 32 10 -4 13 -14 9 -33 -5 -17 -3 -23 3 -16 6 6 13 22 17 37 5 23 3
27 -11 21 -15 -5 -14 -3 2 10 11 9 21 17 22 17 2 0 2 -20 1 -45z m92 5 c0 -5
-4 -10 -10 -10 -6 0 -6 -10 0 -27 8 -23 8 -25 -2 -13 -7 8 -23 14 -35 12 -25
-4 -26 -2 -17 22 3 9 10 13 15 10 5 -3 9 0 9 5 0 6 9 11 20 11 11 0 20 -4 20
-10z m-1622 -41 c-10 -8 -10 -12 4 -23 10 -7 15 -16 11 -19 -3 -4 -1 -7 5 -7
7 0 12 -4 12 -10 0 -11 -42 -13 -77 -4 -13 4 -23 9 -23 13 0 4 17 27 37 51 31
35 39 40 41 26 2 -10 -2 -23 -10 -27z m1666 10 c-8 -13 -21 -11 -27 5 -4 10 0
12 14 9 10 -3 16 -9 13 -14z m-242 -4 c0 -5 -5 -11 -10 -13 -5 -1 -9 4 -9 13
0 9 4 14 9 13 5 -2 10 -8 10 -13z m-2098 -52 c4 -9 3 -19 -1 -22 -4 -3 -8 -12
-8 -20 0 -8 -6 -16 -14 -19 -10 -3 -11 2 -6 19 4 13 13 27 19 31 8 6 7 8 -1 8
-7 0 -13 5 -13 10 0 16 17 11 24 -7z m1385 -8 c-9 -9 -23 -13 -32 -9 -23 9
-14 19 19 22 26 2 27 1 13 -13z m57 -17 c-9 -5 -24 -7 -32 -4 -12 5 -13 8 -2
20 10 10 18 11 32 4 18 -10 18 -11 2 -20z m628 0 c-1 -10 2 -15 7 -12 12 7 11
1 -5 -31 -8 -15 -16 -21 -18 -14 -6 17 -28 2 -28 -19 0 -15 2 -15 10 -2 8 13
10 13 10 -2 0 -9 -9 -20 -20 -23 -11 -3 -20 -12 -20 -18 -1 -7 -7 -1 -15 13
-13 24 -21 111 -10 122 3 2 24 4 47 4 34 -1 43 -4 42 -18z m-1843 -31 c-20
-20 -22 -21 -15 -2 8 21 25 37 33 29 3 -2 -5 -15 -18 -27z m573 -2 c-23 -17
-34 -19 -34 -5 0 11 42 31 49 24 3 -2 -4 -11 -15 -19z m-540 -10 c-4 -8 1 -17
10 -21 9 -3 16 -16 16 -28 0 -17 -2 -18 -10 -6 -7 11 -11 9 -19 -12 -6 -15
-13 -48 -16 -74 -7 -61 -15 -69 -15 -16 0 22 -4 43 -9 46 -13 8 -1 48 21 69
10 10 16 22 13 28 -4 5 -3 14 0 19 9 15 15 12 9 -5z m-158 -4 c-3 -5 2 -12 11
-16 10 -3 19 -1 21 4 2 6 8 11 13 11 6 0 7 -6 2 -12 -4 -7 -8 -18 -8 -23 0
-15 -41 -65 -53 -65 -12 0 -28 67 -18 77 3 4 6 -5 6 -18 0 -18 2 -21 9 -9 6 8
7 18 4 23 -5 9 3 37 12 37 4 0 4 -4 1 -9z m111 -33 c-3 -8 -6 -5 -6 6 -1 11 2
17 5 13 3 -3 4 -12 1 -19z m-30 -14 c-9 -9 -28 6 -21 18 4 6 10 6 17 -1 6 -6
8 -13 4 -17z m-181 4 c-4 6 -3 12 2 12 11 0 22 -46 14 -55 -3 -3 -14 -5 -24
-5 -14 0 -18 8 -18 31 0 28 2 30 17 18 11 -10 14 -10 9 -1z m919 -27 c3 -5 1
-12 -5 -16 -5 -3 -10 1 -10 9 0 18 6 21 15 7z m-868 -25 c-6 -8 -16 -11 -22
-8 -5 3 -4 -1 3 -10 9 -11 10 -18 2 -23 -5 -3 -10 -2 -10 3 0 6 -10 8 -22 4
l-22 -5 23 -9 c13 -4 21 -14 18 -21 -3 -8 3 -14 14 -14 15 -1 19 5 19 28 0 18
5 29 14 29 21 0 33 -22 31 -57 -1 -18 2 -33 6 -33 5 0 9 7 9 15 0 8 2 15 4 15
2 0 13 3 23 6 14 5 15 4 4 -4 -14 -10 -24 -55 -10 -47 4 3 12 -2 19 -10 10
-12 10 -15 -1 -15 -12 0 -12 -2 0 -9 11 -7 10 -11 -7 -20 -11 -6 -26 -11 -32
-11 -18 0 -79 72 -73 87 3 7 -2 13 -11 13 -9 0 -16 -6 -17 -12 0 -10 -2 -10
-6 -1 -6 17 -43 -6 -43 -27 0 -11 -2 -12 -8 -2 -10 15 7 134 18 127 10 -6 70
18 70 28 0 4 4 5 10 2 6 -4 5 -11 -3 -19z m88 4 c-3 -6 1 -7 9 -4 10 4 16 1
16 -10 0 -8 11 -18 25 -22 18 -4 24 -12 23 -29 -1 -14 -7 -21 -15 -18 -7 3
-13 -2 -13 -11 0 -9 -2 -16 -4 -16 -2 0 -13 -3 -23 -7 -16 -6 -16 -5 -5 10 20
24 -4 90 -30 81 -20 -6 -21 -4 -12 20 3 9 13 16 21 16 8 0 11 -4 8 -10z m1920
0 c-17 -7 -17 -9 -2 -9 19 -1 23 -16 6 -26 -6 -4 -8 -13 -5 -21 7 -18 -8 -26
-39 -18 -19 5 -25 13 -25 32 0 14 3 22 7 19 8 -8 35 12 29 22 -3 4 7 7 22 8
24 2 24 1 7 -7z m-1685 -35 c0 -8 -4 -15 -10 -15 -5 0 -7 7 -4 15 4 8 8 15 10
15 2 0 4 -7 4 -15z m1915 -16 c11 -16 1 -19 -13 -3 -7 8 -8 14 -3 14 5 0 13
-5 16 -11z m-188 -21 c-3 -8 -6 -5 -6 6 -1 11 2 17 5 13 3 -3 4 -12 1 -19z
m-2197 -12 c0 -2 -8 -7 -17 -10 -10 -4 -14 -4 -10 0 4 4 1 14 -6 22 -10 13 -9
14 11 3 12 -6 22 -13 22 -15z m370 -41 c15 9 18 -10 4 -23 -8 -7 -14 -8 -14
-2 0 5 -4 10 -10 10 -5 0 -10 -7 -10 -15 0 -8 5 -15 12 -15 6 0 3 -7 -8 -15
-16 -13 -16 -14 -1 -9 12 4 17 1 17 -12 0 -12 -3 -15 -8 -8 -9 14 -42 9 -53
-8 -6 -9 -9 -9 -9 -1 0 14 28 43 41 43 6 0 6 7 -1 19 -14 28 -12 41 5 35 11
-5 15 1 16 22 l2 29 4 -28 c2 -15 8 -25 13 -22z m-69 -2 c0 -5 2 -18 3 -30 1
-12 -1 -20 -6 -17 -4 3 -8 0 -8 -6 0 -6 -4 -8 -10 -5 -5 3 -10 11 -10 16 0 6
5 7 10 4 14 -9 12 19 -2 33 -9 9 -8 12 5 12 9 0 17 -3 18 -7z m-139 -56 c30
-35 31 -53 4 -50 -11 0 -15 -4 -12 -13 7 -18 -2 -18 -20 1 -8 8 -21 12 -29 9
-8 -4 -15 -1 -15 4 0 6 -9 9 -21 7 -16 -3 -18 -1 -10 9 6 7 8 21 5 31 -9 23
23 47 50 39 12 -3 33 -20 48 -37z m1888 -12 c0 -7 -8 -19 -17 -24 -17 -10 -17
-10 0 -11 12 0 17 -8 18 -27 1 -16 3 -55 5 -87 4 -68 -3 -81 -44 -84 -31 -2
-47 10 -55 43 -3 15 -5 13 -6 -8 -1 -27 -3 -28 -38 -22 -20 3 -39 8 -41 10 -9
9 -15 105 -6 105 4 0 18 -10 31 -22 13 -12 23 -17 23 -11 0 5 -9 18 -20 28
-11 10 -20 26 -20 36 0 19 35 44 49 35 5 -3 12 1 15 10 4 10 2 13 -7 8 -8 -6
-8 -3 1 9 11 13 17 14 33 4 14 -9 22 -9 27 -1 7 10 28 21 45 23 4 1 7 -6 7
-14z m-1783 -17 c-3 -8 -6 -5 -6 6 -1 11 2 17 5 13 3 -3 4 -12 1 -19z m1613
-9 c0 -13 -10 -23 -30 -30 -33 -12 -38 -24 -14 -33 13 -5 13 -9 -3 -30 -15
-21 -24 -24 -58 -20 -61 7 -79 50 -20 48 42 -2 46 10 8 24 l-28 10 28 3 c15 1
40 3 56 4 35 2 51 12 51 31 0 8 2 14 5 14 3 0 5 -9 5 -21z m-1615 -11 c6 -4 2
-8 -7 -8 -10 0 -18 7 -18 17 0 9 3 12 8 7 4 -5 12 -12 17 -16z m1424 -19 c-7
-13 -18 -30 -26 -37 -11 -11 -13 -11 -13 1 0 27 32 79 42 69 6 -6 5 -18 -3
-33z m-1446 7 l24 -24 -33 1 c-19 1 -34 5 -34 10 0 4 5 5 12 1 8 -5 9 0 6 14
-8 28 -4 27 25 -2z m1937 -7 c0 -6 -4 -7 -10 -4 -5 3 -10 11 -10 16 0 6 5 7
10 4 6 -3 10 -11 10 -16z m-33 -30 c-22 -6 -22 -6 -2 -15 11 -5 21 -15 23 -22
1 -8 -2 -11 -7 -8 -5 3 -12 -2 -16 -11 -3 -10 -1 -19 4 -21 14 -5 14 -32 1
-32 -12 0 -24 45 -16 65 3 8 1 15 -4 15 -14 0 -12 26 2 49 11 18 13 18 24 3
11 -14 9 -18 -9 -23z m-2157 11 c0 -5 -2 -10 -4 -10 -3 0 -8 5 -11 10 -3 6 -1
10 4 10 6 0 11 -4 11 -10z m358 -2 c-5 -16 -57 -42 -65 -34 -9 9 2 17 26 19
11 1 21 7 21 14 0 7 5 13 11 13 6 0 9 -6 7 -12z m-205 -15 c-3 -7 -9 -13 -14
-13 -5 0 -9 -5 -9 -10 0 -7 6 -7 20 0 22 12 27 1 8 -18 -9 -9 -8 -12 8 -13 10
0 14 -3 7 -5 -9 -4 -93 42 -93 51 0 2 9 1 20 -2 15 -4 19 -2 14 10 -4 11 1 15
19 13 15 0 23 -6 20 -13z m1944 -15 c-3 -7 -5 -2 -5 12 0 14 2 19 5 13 2 -7 2
-19 0 -25z m-1587 18 c0 -2 -9 -6 -20 -9 -11 -3 -18 -1 -14 4 5 9 34 13 34 5z
m-265 -17 c4 -5 -3 -9 -14 -9 -26 0 -35 15 -11 17 11 1 22 -2 25 -8z m1975 -9
c0 -5 -2 -10 -4 -10 -3 0 -8 5 -11 10 -3 6 -1 10 4 10 6 0 11 -4 11 -10z
m-2142 -20 c7 -12 17 -18 21 -15 19 11 41 -8 40 -34 -1 -16 -3 -19 -6 -9 -2 9
-20 23 -39 30 -19 6 -34 16 -34 21 0 4 -4 5 -10 2 -6 -3 -7 1 -4 9 8 21 17 20
32 -4z m1616 -24 c-3 -21 -8 -35 -11 -32 -2 2 -1 20 3 40 3 21 8 35 11 32 2
-2 1 -20 -3 -40z m839 25 c4 -1 7 -16 7 -35 0 -25 -5 -35 -20 -39 -17 -4 -20
0 -21 31 l-1 37 -8 -30 -8 -30 -1 36 c-1 37 -3 36 52 30z m-303 -36 c0 -26 -3
-33 -15 -29 -11 5 -12 11 -4 25 5 10 7 19 4 19 -4 0 -3 5 0 10 11 18 15 11 15
-25z m-2030 0 c0 -9 -6 -12 -16 -8 -13 5 -13 7 -2 14 17 11 18 11 18 -6z m40
1 c0 -3 -4 -8 -10 -11 -5 -3 -10 -1 -10 4 0 6 5 11 10 11 6 0 10 -2 10 -4z
m2127 -13 c2 -6 -5 -13 -17 -16 -22 -6 -23 -5 -14 18 7 17 25 16 31 -2z m39
-10 c-10 -10 -19 5 -10 18 6 11 8 11 12 0 2 -7 1 -15 -2 -18z m-296 -3 c0 -5
-4 -10 -10 -10 -5 0 -10 5 -10 10 0 6 5 10 10 10 6 0 10 -4 10 -10z m-590 -10
c0 -5 -4 -10 -10 -10 -5 0 -10 5 -10 10 0 6 5 10 10 10 6 0 10 -4 10 -10z
m-960 -14 c0 -11 -19 -15 -25 -6 -3 5 1 10 9 10 9 0 16 -2 16 -4z m-412 -62
l-3 -39 -5 47 c-3 26 -1 43 3 39 5 -5 7 -26 5 -47z m2159 -81 c-2 -27 -3 -5
-3 47 0 52 1 74 3 48 2 -27 2 -69 0 -95z m93 123 c0 -3 -4 -8 -10 -11 -5 -3
-10 -1 -10 4 0 6 5 11 10 11 6 0 10 -2 10 -4z m-330 -16 c0 -8 -129 -5 -138 4
-2 2 29 4 67 5 39 0 71 -3 71 -9z m40 0 c0 -5 -4 -10 -10 -10 -5 0 -10 5 -10
10 0 6 5 10 10 10 6 0 10 -4 10 -10z m-1430 -14 c0 -8 -6 -17 -12 -20 -10 -5
-10 -7 0 -12 20 -10 13 -34 -10 -35 -22 0 -22 -1 -3 -9 15 -6 12 -8 -16 -7
-27 2 -35 6 -31 16 4 12 -5 13 -50 8 -52 -5 -99 8 -70 20 6 2 12 12 12 21 0
14 11 17 65 18 57 1 64 -1 68 -20 3 -16 5 -15 6 7 1 20 6 27 21 27 11 0 20 -6
20 -14z m1495 4 c-3 -5 -12 -10 -20 -10 -8 0 -17 5 -20 10 -4 6 5 10 20 10 15
0 24 -4 20 -10z m54 1 c9 -6 10 -11 2 -15 -13 -8 -31 1 -31 15 0 11 11 11 29
0z m161 -5 c0 -11 -19 -15 -25 -6 -3 5 1 10 9 10 9 0 16 -2 16 -4z m-325 -16
c4 -6 -30 -11 -92 -12 l-98 -2 98 -3 c53 -2 97 -8 97 -13 0 -6 -7 -10 -15 -10
-8 0 -19 -9 -25 -20 -9 -16 -23 -20 -97 -22 l-87 -3 -1 -34 c0 -19 -6 -36 -12
-38 -9 -3 -13 9 -13 42 0 26 -4 44 -9 40 -12 -7 -25 31 -16 45 3 5 1 10 -6 10
-9 0 -10 3 -3 10 5 5 63 11 129 13 66 1 125 4 132 5 6 1 15 -2 18 -8z m145
-20 c-36 -12 -70 -12 -70 0 0 6 21 10 48 9 38 -1 42 -2 22 -9z m-456 -35 c-4
-8 -10 -15 -15 -15 -4 0 -6 7 -3 15 4 8 10 15 15 15 4 0 6 -7 3 -15z m-855 1
c-12 -10 -59 -15 -59 -6 0 5 14 10 32 10 17 0 29 -2 27 -4z m55 -30 c17 -32
16 -56 -3 -56 -4 0 -12 20 -18 45 -12 54 -4 58 21 11z m-374 14 c-18 -12 -43
-13 -36 -2 2 4 15 8 28 9 18 2 19 0 8 -7z m-165 -11 c-55 -11 -75 -11 -75 1 0
6 25 9 58 9 56 -1 57 -1 17 -10z m72 5 c-3 -3 -12 -4 -19 -1 -8 3 -5 6 6 6 11
1 17 -2 13 -5z m-268 -8 c-9 -9 -179 -15 -179 -6 0 6 40 10 92 10 50 0 89 -2
87 -4z m685 -12 c11 -28 7 -46 -11 -42 -10 2 -17 13 -17 31 -2 29 18 37 28 11z
m-224 -31 c0 -24 -14 -30 -80 -32 -25 0 -66 -4 -92 -7 l-48 -6 0 36 0 36 110
-2 c106 -3 110 -4 110 -25z m1129 23 c-10 -8 -89 -13 -83 -5 3 5 24 9 46 9 23
0 39 -2 37 -4z m-1363 -22 c-3 -9 -6 -22 -6 -30 0 -9 -9 -13 -26 -12 -21 2
-23 4 -10 14 9 6 13 14 9 17 -3 4 0 7 8 7 11 0 11 2 -1 10 -12 8 -10 10 9 10
17 0 22 -4 17 -16z m-226 0 c0 -3 -10 -15 -22 -26 l-23 -20 22 5 c13 3 25 2
28 -3 8 -13 -35 -20 -122 -20 l-83 0 0 29 c0 27 4 30 38 34 64 6 162 7 162 1z
m1810 -15 c17 -6 10 -7 -20 -3 -25 3 -49 10 -55 16 -10 9 22 4 75 -13z m-1060
-24 c0 -8 -4 -15 -10 -15 -5 0 -10 7 -10 15 0 8 5 15 10 15 6 0 10 -7 10 -15z
m-56 -10 c-4 -8 -10 -12 -15 -9 -14 8 -10 24 6 24 9 0 12 -6 9 -15z m-234 -9
c0 -11 -26 -16 -115 -21 -63 -4 -122 -4 -132 1 -21 9 -15 10 127 23 52 5 101
9 108 10 6 0 12 -5 12 -13z m1808 7 c-10 -2 -28 -2 -40 0 -13 2 -5 4 17 4 22
1 32 -1 23 -4z m-2248 -28 c7 -9 8 -15 2 -15 -5 0 -12 7 -16 15 -3 8 -4 15 -2
15 2 0 9 -7 16 -15z m-40 -14 c-24 -14 -180 -25 -180 -13 0 15 25 20 115 21
50 0 74 -3 65 -8z m440 -27 c0 -14 1 -14 16 0 23 23 30 19 9 -4 -10 -12 -25
-18 -32 -15 -7 3 -20 8 -28 11 -12 5 -12 0 -5 -27 7 -24 6 -35 -2 -40 -13 -8
-43 4 -53 21 -3 6 -12 10 -20 10 -16 0 -16 -41 0 -53 6 -5 4 -7 -5 -4 -8 2
-15 12 -15 22 0 10 -6 20 -14 23 -10 3 -12 -1 -7 -14 4 -14 1 -12 -15 6 -11
14 -18 19 -14 12 6 -11 3 -12 -11 -4 -11 5 -25 7 -32 5 -8 -3 -10 1 -6 12 4 9
13 14 20 11 8 -3 13 -2 11 2 -4 12 13 17 102 28 47 7 89 12 94 13 4 0 7 -6 7
-15z m1730 -4 c0 -5 -7 -7 -15 -4 -8 4 -15 8 -15 10 0 2 7 4 15 4 8 0 15 -4
15 -10z m-1698 -32 c-7 -7 -12 -8 -12 -2 0 14 12 26 19 19 2 -3 -1 -11 -7 -17z
m188 4 c0 -5 -7 -9 -15 -9 -8 0 -12 4 -9 9 3 4 9 8 15 8 5 0 9 -4 9 -8z m1606
-10 c-10 -2 -22 0 -28 6 -6 6 0 7 19 4 21 -5 23 -7 9 -10z m-2306 -4 c0 21 57
15 63 -7 6 -25 -2 -34 -20 -20 -7 7 -13 7 -13 2 0 -6 -11 -8 -25 -5 -14 2 -25
0 -25 -6 0 -11 -53 -9 -82 3 -11 4 -18 3 -18 -4 0 -6 -5 -11 -10 -11 -6 0 -5
8 2 20 15 24 34 26 46 4 6 -11 11 -13 16 -5 4 6 2 11 -3 11 -6 0 -11 4 -11 9
0 13 63 18 72 6 5 -6 8 -5 8 3z m-130 -8 c0 -5 -5 -10 -11 -10 -5 0 -7 5 -4
10 3 6 8 10 11 10 2 0 4 -4 4 -10z m520 -21 c0 -6 -4 -7 -10 -4 -5 3 -10 11
-10 16 0 6 5 7 10 4 6 -3 10 -11 10 -16z m-556 2 c4 -5 -3 -7 -14 -4 -23 6
-26 13 -6 13 8 0 17 -4 20 -9z m170 -50 c10 -16 -5 -40 -24 -38 -11 1 -16 6
-12 16 4 10 1 12 -8 6 -8 -5 -11 -4 -6 3 4 6 14 8 23 5 11 -4 14 -3 9 5 -4 7
-3 12 3 12 5 0 12 -4 15 -9z m41 -11 c3 -5 2 -10 -4 -10 -5 0 -13 5 -16 10 -3
6 -2 10 4 10 5 0 13 -4 16 -10z m53 -11 c6 17 32 13 32 -4 0 -11 -8 -14 -29
-10 -17 3 -33 0 -37 -7 -4 -7 -3 -8 4 -4 7 4 12 3 12 -3 0 -5 9 -13 20 -16 11
-3 20 -11 20 -16 0 -12 -27 -12 -32 1 -2 6 -13 12 -24 12 -15 2 -20 7 -16 20
2 10 8 18 13 18 5 0 5 8 2 18 -6 15 -5 15 12 -2 12 -12 21 -14 23 -7z m337 1
c3 -5 1 -10 -4 -10 -6 0 -11 5 -11 10 0 6 2 10 4 10 3 0 8 -4 11 -10z m-600
-35 c0 -29 -7 -31 -26 -9 -10 13 -10 17 2 25 21 13 24 11 24 -16z m80 15 c4
-6 -6 -10 -22 -9 -25 0 -26 1 -8 9 11 5 21 9 22 9 1 1 5 -3 8 -9z m25 -29 c0
-6 -4 -13 -10 -16 -5 -3 -10 1 -10 9 0 9 5 16 10 16 6 0 10 -4 10 -9z m-50
-15 c0 -3 -4 -8 -10 -11 -5 -3 -10 -1 -10 4 0 6 5 11 10 11 6 0 10 -2 10 -4z
m20 -36 c0 -4 -7 -11 -16 -14 -8 -3 -12 -2 -9 4 3 6 0 10 -7 10 -10 0 -9 3 2
9 15 10 30 6 30 -9z m-63 -6 c-3 -3 -12 -4 -19 -1 -8 3 -5 6 6 6 11 1 17 -2
13 -5z m8 -24 c11 -5 15 -9 8 -9 -6 -1 -19 -4 -29 -8 -11 -4 -15 -3 -11 5 4 6
-1 13 -10 15 -15 4 -15 5 2 5 11 0 29 -3 40 -8z m5 -78 c0 -5 -7 -9 -15 -9 -8
0 -12 4 -9 9 3 4 9 8 15 8 5 0 9 -4 9 -8z m185 -2 c-3 -5 -10 -10 -16 -10 -5
0 -9 5 -9 10 0 6 7 10 16 10 8 0 12 -4 9 -10z m-85 -30 c-8 -5 -19 -10 -25
-10 -5 0 -3 5 5 10 8 5 20 10 25 10 6 0 3 -5 -5 -10z"/>
<path d="M2148 2183 c7 -3 16 -2 19 1 4 3 -2 6 -13 5 -11 0 -14 -3 -6 -6z"/>
<path d="M2091 2014 c0 -11 3 -14 6 -6 3 7 2 16 -1 19 -3 4 -6 -2 -5 -13z"/>
<path d="M2151 2101 c-10 -6 -10 -10 -1 -16 13 -8 24 -1 19 14 -3 6 -10 7 -18
2z"/>
<path d="M1163 1818 c-2 -22 13 -24 21 -2 8 21 8 21 -7 21 -7 0 -14 -9 -14
-19z"/>
<path d="M888 1648 c-3 -31 0 -69 8 -93 12 -38 13 -34 7 50 -3 50 -7 91 -8 93
-1 1 -5 -21 -7 -50z"/>
<path d="M1204 1563 c3 -6 -1 -16 -10 -21 -14 -8 -14 -12 -1 -45 19 -43 15
-45 -84 -52 l-64 -4 5 -33 c11 -75 5 -129 -15 -144 -18 -14 -18 -14 2 -14 14
0 30 15 50 46 27 44 29 45 68 39 90 -14 143 2 158 48 12 38 -3 70 -65 137 -28
30 -48 50 -44 43z"/>
<path d="M630 1532 c0 -12 19 -26 26 -19 2 2 -2 10 -11 17 -9 8 -15 8 -15 2z"/>
<path d="M1580 1420 c8 -5 20 -10 25 -10 6 0 3 5 -5 10 -8 5 -19 10 -25 10 -5
0 -3 -5 5 -10z"/>
<path d="M1646 1385 c4 -8 7 -15 9 -15 2 0 5 7 9 15 3 9 0 15 -9 15 -9 0 -12
-6 -9 -15z"/>
<path d="M911 1224 c0 -11 3 -14 6 -6 3 7 2 16 -1 19 -3 4 -6 -2 -5 -13z"/>
<path d="M1023 897 c0 -7 -3 -19 -5 -27 -3 -8 -3 -11 0 -6 2 4 8 2 13 -5 4 -7
11 -10 15 -6 4 3 2 13 -4 20 -7 8 -9 16 -6 19 3 3 1 8 -4 12 -5 3 -9 0 -9 -7z"/>
<path d="M1056 881 c-4 -6 -2 -11 4 -11 6 0 8 -6 4 -12 -6 -10 -4 -10 7 0 9 9
10 15 2 23 -8 8 -13 8 -17 0z"/>
<path d="M695 820 c-3 -5 -1 -10 4 -10 6 0 11 5 11 10 0 6 -2 10 -4 10 -3 0
-8 -4 -11 -10z"/>
<path d="M670 739 c0 -5 5 -7 10 -4 6 3 10 8 10 11 0 2 -4 4 -10 4 -5 0 -10
-5 -10 -11z"/>
<path d="M681 709 c-12 -20 -11 -21 11 -16 12 4 29 7 36 7 6 0 12 5 12 11 0 6
-9 9 -20 6 -10 -3 -20 -1 -22 4 -2 5 -9 0 -17 -12z"/>
<path d="M515 680 c-16 -7 -17 -9 -3 -9 9 -1 20 4 23 9 7 11 7 11 -20 0z"/>
<path d="M378 613 c7 -3 16 -2 19 1 4 3 -2 6 -13 5 -11 0 -14 -3 -6 -6z"/>
<path d="M2076 1604 c-8 -20 -8 -24 2 -24 4 0 8 9 9 20 2 24 -3 26 -11 4z"/>
<path d="M380 1631 c0 -25 6 -27 13 -6 4 8 2 17 -3 20 -6 4 -10 -3 -10 -14z"/>
<path d="M275 1670 c3 -5 8 -10 11 -10 2 0 4 5 4 10 0 6 -5 10 -11 10 -5 0 -7
-4 -4 -10z"/>
<path d="M150 1460 c0 -6 7 -10 15 -10 8 0 15 2 15 4 0 2 -7 6 -15 10 -8 3
-15 1 -15 -4z"/>
<path d="M2053 2543 c-10 -3 -10 -10 -2 -24 5 -11 7 -24 4 -29 -8 -14 -32 -13
-37 1 -2 7 -4 -20 -3 -59 1 -76 8 -93 28 -73 16 16 16 33 0 49 -7 7 -13 23
-13 35 1 21 1 21 16 -3 8 -14 13 -18 11 -10 -2 8 5 19 16 25 20 10 32 55 15
55 -5 0 -8 7 -6 16 3 18 -9 25 -29 17z"/>
<path d="M1675 820 c3 -5 8 -10 11 -10 2 0 4 5 4 10 0 6 -5 10 -11 10 -5 0 -7
-4 -4 -10z"/>
</g>
</svg>
